<svg width="68" height="80" fill="none" xmlns="http://www.w3.org/2000/svg"><path d="M.33 79.624c.219.235.548.376.878.376H66.54c.33 0 .643-.141.878-.376.22-.236.346-.565.33-.895l-2.73-53.082V25.6c0-.047-.015-.094-.015-.141v-.032-.03a.562.562 0 00-.063-.173c0-.016-.016-.016-.016-.032l-.031-.063c0-.015-.016-.031-.016-.047L60.8 18.274a1.21 1.21 0 00-1.035-.58h-2.51l.988-4.25a1.224 1.224 0 00-.141-.91 1.19 1.19 0 00-.753-.534L45.082 9.13l-.016-.095C43.921 3.796 39.231 0 33.867 0a11.487 11.487 0 00-9.223 4.69c-.047.063-.094.157-.141.251l-.032.079L9.098 6.84a1.2 1.2 0 00-1.051 1.333l1.13 9.521H8.015c-.424 0-.816.22-1.036.58l-4.078 6.808c-.016.016-.016.047-.032.063l-.015.047c-.032.079-.063.141-.079.204v.031c-.015.063-.015.126-.031.189v.031L0 78.73c-.016.33.11.66.33.895zM56.658 20.11h2.4l2.635 4.392h-6.055l1.02-4.392zm-1.067-6.04l-2.447 10.432h-8.126l-2.525-10.51a1.214 1.214 0 00-.55-.753 1.155 1.155 0 00-.909-.141l-2.447.596.8-3.42 16.204 3.797zM42.557 24.503H21.835l-.972-4.063 19.592-4.706 2.102 8.769zM28.407 4.251a9.095 9.095 0 015.46-1.851c3.702 0 7.09 2.337 8.423 5.82l.11.282-3.624-.847a1.16 1.16 0 00-.91.157 1.19 1.19 0 00-.533.753l-1.349 5.772-1.647.392-1.13-9.521a1.164 1.164 0 00-.454-.8 1.207 1.207 0 00-.894-.251l-3.906.455.455-.361zm2.542 2.431l1.02 8.612-12.848 3.09a1.21 1.21 0 00-.894 1.46l1.13 4.674h-6.965l-1.82-15.436 20.377-2.4zM8.69 20.11h.753l.518 4.392H6.039L8.69 20.11zM2.478 77.427l2.589-50.51h57.6v.142l2.588 50.525H2.478v-.157z" fill="#000"/><path d="M33.867 54.133c6.29 0 11.42-5.113 11.42-11.42V37.6l.11-.031a3.924 3.924 0 00-1.303-7.624 3.923 3.923 0 00-3.921 3.922 3.94 3.94 0 002.62 3.702l.11.031v5.114c0 4.972-4.048 9.004-9.005 9.004-4.972 0-9.004-4.047-9.004-9.004V37.6l.11-.031a3.924 3.924 0 00-1.302-7.624 3.923 3.923 0 00-3.921 3.922 3.94 3.94 0 002.62 3.702l.11.031v5.114c-.048 6.306 5.066 11.42 11.356 11.42zm8.973-19.357l-.11-.235a1.45 1.45 0 01-.157-.659c0-.831.674-1.521 1.521-1.521.847 0 1.522.674 1.522 1.521 0 .267-.078.518-.204.753l-.141.236-.141-.236a1.192 1.192 0 00-1.036-.596h-.11c-.392 0-.768.188-.988.518l-.156.22zm-20.487-.14a1.47 1.47 0 01-.204-.754c0-.831.675-1.521 1.522-1.521a1.513 1.513 0 011.318 2.274l-.142.236-.14-.236a1.192 1.192 0 00-1.036-.596c-.424 0-.816.22-1.035.596l-.142.236-.14-.236z" fill="#000"/></svg>