<svg width="80" height="81" fill="none" xmlns="http://www.w3.org/2000/svg"><path d="M51.484 35.906c0 9.282 4.032 16.563 9.172 16.563 5.14 0 9.172-7.282 9.172-16.563 0-9.281-4.031-16.562-9.172-16.562-5.14 0-9.172 7.281-9.172 16.562zm16.157 0c0 7.797-3.204 14.375-6.985 14.375s-6.984-6.578-6.984-14.375 3.203-14.375 6.984-14.375c3.782 0 6.985 6.594 6.985 14.375z" fill="#000"/><path d="M78.906 0h-36.5c-.61 0-1.093.484-1.093 1.094V6.64l3.218 32.453H43.25V38.03c0-2.61-1.844-4.86-4.406-5.375a21.157 21.157 0 00-4.016-11.468l-2.703-3.735A1.088 1.088 0 0031.25 17a1.019 1.019 0 00-.875.422l-3.25 4.25a11.132 11.132 0 01-8.813 4.344 7.616 7.616 0 00-7.546 6.625 5.475 5.475 0 00-4.454 5.375v1.062H4.845c-.61 0-1.094.484-1.094 1.094v7.203H1.094c-.61 0-1.094.484-1.094 1.094v12.328a30.739 30.739 0 006.484 18.812c.204.266.532.422.86.422h34.843c.344 0 .657-.156.86-.422a30.956 30.956 0 004.078-6.984v3.781A3.594 3.594 0 0050.719 80h19.75a3.594 3.594 0 003.594-3.594v-10.64a.962.962 0 00.109-.36L80 6.641v-.047-5.5C80 .484 79.516 0 78.906 0zM8.47 38.031c0-1.812 1.484-3.281 3.297-3.281h9.265c.61 0 1.094-.484 1.094-1.094 0-.61-.484-1.093-1.094-1.093H12.97a5.45 5.45 0 015.312-4.344 13.392 13.392 0 0010.547-5.203l2.36-3.078 1.843 2.546a18.754 18.754 0 013.578 10.078H34.5c-.61 0-1.094.485-1.094 1.094 0 .61.485 1.094 1.094 1.094h3.031c.032 0 .078 0 .11-.016.03 0 .062.016.093.016h.016a3.28 3.28 0 013.281 3.281v1.063H8.47V38.03zm-2.563 7.39H19.22c.61 0 1.093-.483 1.093-1.093s-.484-1.094-1.093-1.094H5.906v-1.953H43.61v1.953H30.312c-.609 0-1.093.485-1.093 1.094 0 .61.484 1.094 1.093 1.094h13.313v1.969H5.906v-1.97zm41.438 15.392c0 .562-.032 1.156-.063 1.734 0 .078 0 .172-.015.25-.047.562-.094 1.14-.172 1.703a28.563 28.563 0 01-5.453 13.375H7.875a28.63 28.63 0 01-5.688-17.063V49.578h45.157v11.234zM71.89 76.406a1.4 1.4 0 01-1.407 1.406H50.72a1.4 1.4 0 01-1.407-1.406v-5.719h22.563v5.72h.016zm0-7.906H49.312v-2.11h22.563v2.11h.016zm.203-4.297h-22.75c0-.078.015-.14.015-.219.047-.422.078-.843.11-1.25 0-.125.015-.25.031-.375.031-.515.047-1.03.047-1.547V48.484c0-.609-.484-1.093-1.094-1.093h-.89L43.624 7.625h34.078l-5.61 56.578zm5.719-58.766H43.5v-3.25h34.313v3.25z" fill="#000"/><path d="M30.469 32.563H28.28c-.61 0-1.093.484-1.093 1.093 0 .61.484 1.094 1.093 1.094h2.188c.61 0 1.093-.484 1.093-1.094 0-.61-.484-1.093-1.093-1.093zM24.5 54.547c-9.281 0-16.563 4.031-16.563 9.172 0 5.14 7.282 9.172 16.563 9.172 9.281 0 16.563-4.032 16.563-9.172 0-5.14-7.282-9.172-16.563-9.172zm0 16.156c-7.797 0-14.375-3.203-14.375-6.984 0-3.782 6.578-6.985 14.375-6.985s14.375 3.203 14.375 6.985c0 3.781-6.594 6.984-14.375 6.984z" fill="#000"/></svg>