<svg width="73" height="80" fill="none" xmlns="http://www.w3.org/2000/svg"><path d="M41.225 37.408c0-3.515-2.88-6.394-6.394-6.394h-5.169a3.944 3.944 0 110-7.889h6.457a2.66 2.66 0 012.656 2.656 1.225 1.225 0 002.45 0c0-2.815-2.29-5.09-5.106-5.105h-2.656v-3.944a1.225 1.225 0 00-2.45 0v3.944h-1.367a6.394 6.394 0 000 12.787h5.185a3.944 3.944 0 110 7.889h-6.457a2.66 2.66 0 01-2.656-2.656 1.225 1.225 0 00-2.45 0c0 2.815 2.29 5.09 5.106 5.105h2.64v3.944a1.225 1.225 0 002.45 0v-3.944h1.367c3.515 0 6.378-2.863 6.394-6.393z" fill="#000"/><path d="M71.746 56.35a19.409 19.409 0 00-8.891-12.23l-.51-.303.208-.557a31.787 31.787 0 001.924-11.021C64.477 14.457 50.02 0 32.24 0 14.457 0 0 14.457 0 32.239c0 17.78 14.457 32.238 32.239 32.238.334 0 .7 0 1.129-.016l.588-.016.127.573c1.162 5.026 4.2 9.304 8.573 12.04a19.193 19.193 0 0014.585 2.449C67.626 77.105 74.13 66.72 71.746 56.35zM33.86 57.543a18.79 18.79 0 00-.255 3.133c0 .207 0 .413.016.62l.016.716-.715.016h-.669c-16.445 0-29.805-13.36-29.805-29.79C2.45 15.81 15.81 2.45 32.24 2.45c16.429 0 29.789 13.36 29.789 29.79 0 3.355-.557 6.648-1.654 9.813l-.239.684-.684-.239a19.11 19.11 0 00-3.642-.922l-.859-.128.302-.827a24.299 24.299 0 001.48-8.381c0-13.503-10.99-24.493-24.493-24.493-13.503 0-24.493 10.99-24.493 24.493 0 13.503 10.99 24.493 24.493 24.493.286 0 .588 0 .89-.016l.875-.032-.143.859zm.875-3.404l-.446.048c-.7.064-1.4.095-2.051.095-12.151 0-22.044-9.892-22.044-22.043s9.892-22.044 22.044-22.044c12.15 0 22.043 9.892 22.043 22.044a21.394 21.394 0 01-1.797 8.715l-.175.414-.445.032c-7.57.413-14.235 5.264-16.97 12.342l-.16.397zm18.178 23.412c-9.304 0-16.874-7.57-16.874-16.875 0-9.304 7.57-16.875 16.874-16.875 9.305 0 16.875 7.57 16.875 16.875-.016 9.288-7.57 16.859-16.875 16.875z" fill="#000"/><path d="M58.084 67.197h-9.05a2.66 2.66 0 01-2.656-2.656v-5.17a2.66 2.66 0 012.656-2.655h6.092l-3.07 3.085c-.477.477-.493 1.257-.016 1.734.477.477 1.256.493 1.734.016l.015-.016 5.17-5.17a1.229 1.229 0 000-1.733l-5.17-5.169a1.229 1.229 0 00-.858-.35c-.334 0-.637.127-.86.366a1.239 1.239 0 000 1.718l3.086 3.085h-6.091c-2.815 0-5.09 2.29-5.106 5.106v5.169c0 2.815 2.29 5.09 5.106 5.105h9.05c.667 0 1.224-.54 1.224-1.225 0-.684-.572-1.24-1.256-1.24z" fill="#000"/></svg>