<svg width="257" height="63" fill="none" xmlns="http://www.w3.org/2000/svg"><g clip-path="url(#clip0_70_723)" fill="#E40000"><path d="M.466 10.916c.757-1.276 2.039-1.334 3.728-.232C43.105 33.188 85.511 44.44 131.296 44.44c30.523 0 60.638-5.684 90.404-16.994.758-.29 1.923-.754 3.379-1.392a315.21 315.21 0 003.145-1.392c2.33-.928 4.194-.464 5.476 1.392 1.34 1.856.874 3.538-1.282 5.104-2.796 2.03-6.407 4.35-10.718 6.96-13.397 7.888-28.368 14.036-44.852 18.386C160.363 60.854 144.228 63 128.5 63c-24.29 0-47.24-4.234-68.91-12.702-21.67-8.41-41.066-20.358-58.192-35.67C.466 13.874 0 13.062 0 12.308c0-.464.175-.928.466-1.392z"/><path d="M209.118 14.86c.291-.638.757-1.218 1.398-1.856 3.903-2.61 7.631-4.408 11.242-5.336 5.942-1.566 11.709-2.378 17.301-2.552 1.573-.174 3.029-.058 4.427.232 6.99.638 11.242 1.798 12.64 3.48.641.928.932 2.32.932 4.176v1.624c0 5.452-1.456 11.832-4.427 19.198-2.971 7.366-7.106 13.282-12.407 17.806-.757.638-1.456.928-2.097.928-.291 0-.641-.058-.932-.232-.932-.464-1.165-1.334-.699-2.552 5.767-13.514 8.621-22.852 8.621-28.13 0-1.682-.291-2.958-.932-3.712-1.573-1.856-5.942-2.784-13.106-2.784-2.622 0-5.767.174-9.321.464-3.902.464-7.456.928-10.718 1.392-.932 0-1.572-.174-1.864-.464-.291-.29-.407-.638-.233-.928-.058-.232 0-.464.175-.754z"/></g><path d="M73.992 22.777h-3.408V6.769h7.488c1.68 0 2.992.496 3.936 1.488.96.976 1.44 2.2 1.44 3.672 0 1.456-.48 2.68-1.44 3.672s-2.272 1.488-3.936 1.488h-4.08v5.688zm3.624-8.688c.688 0 1.248-.192 1.68-.576.448-.4.672-.928.672-1.584s-.224-1.176-.672-1.56c-.432-.4-.992-.6-1.68-.6h-3.624v4.32h3.624zm10.92 8.688H85.49V11.185h3.048v1.584a5.102 5.102 0 011.656-1.344c.672-.352 1.352-.528 2.04-.528v2.976a3.892 3.892 0 00-.84-.072c-.512 0-1.056.128-1.632.384-.576.256-.984.568-1.224.936v7.656zm11.049.288c-1.792 0-3.272-.56-4.44-1.68-1.168-1.12-1.752-2.592-1.752-4.416 0-1.712.56-3.152 1.68-4.32 1.136-1.168 2.576-1.752 4.32-1.752 1.728 0 3.128.592 4.2 1.776 1.072 1.168 1.608 2.704 1.608 4.608v.672h-8.616c.096.768.44 1.408 1.032 1.92.592.512 1.36.768 2.304.768.512 0 1.064-.104 1.656-.312.608-.208 1.088-.488 1.44-.84l1.344 1.968c-1.168 1.072-2.76 1.608-4.776 1.608zm2.664-7.176c-.048-.656-.312-1.248-.792-1.776-.464-.528-1.152-.792-2.064-.792-.864 0-1.536.264-2.016.792a3.072 3.072 0 00-.84 1.776h5.712zm9.33 7.176a8.845 8.845 0 01-2.904-.48c-.912-.32-1.672-.76-2.28-1.32l1.32-2.136c.448.416 1.056.784 1.824 1.104.768.32 1.496.48 2.184.48.64 0 1.12-.112 1.44-.336.336-.224.504-.528.504-.912 0-.288-.176-.52-.528-.696-.336-.192-.76-.328-1.272-.408-.496-.08-1.048-.2-1.656-.36a11.825 11.825 0 01-1.656-.576 3.205 3.205 0 01-1.272-1.056c-.336-.496-.504-1.104-.504-1.824 0-1.024.424-1.888 1.272-2.592.848-.704 2.008-1.056 3.48-1.056 1.792 0 3.352.528 4.68 1.584l-1.224 2.088c-.368-.384-.864-.704-1.488-.96a4.958 4.958 0 00-1.944-.384c-.544 0-.984.112-1.32.336-.336.208-.504.48-.504.816 0 .256.168.472.504.648.336.16.76.28 1.272.36.512.08 1.064.208 1.656.384.592.16 1.144.36 1.656.6.512.224.936.592 1.272 1.104.336.512.504 1.136.504 1.872 0 1.088-.448 1.984-1.344 2.688-.88.688-2.104 1.032-3.672 1.032zm11.437 0a8.845 8.845 0 01-2.904-.48c-.912-.32-1.672-.76-2.28-1.32l1.32-2.136c.448.416 1.056.784 1.824 1.104.768.32 1.496.48 2.184.48.64 0 1.12-.112 1.44-.336.336-.224.504-.528.504-.912 0-.288-.176-.52-.528-.696-.336-.192-.76-.328-1.272-.408-.496-.08-1.048-.2-1.656-.36a11.825 11.825 0 01-1.656-.576 3.205 3.205 0 01-1.272-1.056c-.336-.496-.504-1.104-.504-1.824 0-1.024.424-1.888 1.272-2.592.848-.704 2.008-1.056 3.48-1.056 1.792 0 3.352.528 4.68 1.584l-1.224 2.088c-.368-.384-.864-.704-1.488-.96a4.958 4.958 0 00-1.944-.384c-.544 0-.984.112-1.32.336-.336.208-.504.48-.504.816 0 .256.168.472.504.648.336.16.76.28 1.272.36.512.08 1.064.208 1.656.384.592.16 1.144.36 1.656.6.512.224.936.592 1.272 1.104.336.512.504 1.136.504 1.872 0 1.088-.448 1.984-1.344 2.688-.88.688-2.104 1.032-3.672 1.032zm27.874-.288h-3.432v-6.72h-7.56v6.72h-3.408V6.769h3.408v6.288h7.56V6.769h3.432v16.008zm8.531.288c-1.792 0-3.272-.56-4.44-1.68-1.168-1.12-1.752-2.592-1.752-4.416 0-1.712.56-3.152 1.68-4.32 1.136-1.168 2.576-1.752 4.32-1.752 1.728 0 3.128.592 4.2 1.776 1.072 1.168 1.608 2.704 1.608 4.608v.672h-8.616c.096.768.44 1.408 1.032 1.92.592.512 1.36.768 2.304.768.512 0 1.064-.104 1.656-.312.608-.208 1.088-.488 1.44-.84l1.344 1.968c-1.168 1.072-2.76 1.608-4.776 1.608zm2.664-7.176c-.048-.656-.312-1.248-.792-1.776-.464-.528-1.152-.792-2.064-.792-.864 0-1.536.264-2.016.792a3.072 3.072 0 00-.84 1.776h5.712zm8.202 6.888h-3.048V11.185h3.048v1.584a5.102 5.102 0 011.656-1.344c.672-.352 1.352-.528 2.04-.528v2.976a3.892 3.892 0 00-.84-.072c-.512 0-1.056.128-1.632.384-.576.256-.984.568-1.224.936v7.656zm11.048.288c-1.792 0-3.272-.56-4.44-1.68-1.168-1.12-1.752-2.592-1.752-4.416 0-1.712.56-3.152 1.68-4.32 1.136-1.168 2.576-1.752 4.32-1.752 1.728 0 3.128.592 4.2 1.776 1.072 1.168 1.608 2.704 1.608 4.608v.672h-8.616c.096.768.44 1.408 1.032 1.92.592.512 1.36.768 2.304.768.512 0 1.064-.104 1.656-.312.608-.208 1.088-.488 1.44-.84l1.344 1.968c-1.168 1.072-2.76 1.608-4.776 1.608zm2.664-7.176c-.048-.656-.312-1.248-.792-1.776-.464-.528-1.152-.792-2.064-.792-.864 0-1.536.264-2.016.792a3.072 3.072 0 00-.84 1.776h5.712z" fill="#E40000"/><defs><clipPath id="clip0_70_723"><path fill="#fff" transform="translate(0 5)" d="M0 0h257v58H0z"/></clipPath></defs></svg>